<svg width="24" height="24" viewBox="0 0 24 24" fill="none" xmlns="http://www.w3.org/2000/svg">
<rect x="1.5" y="1.5" width="21" height="21" rx="1.5" stroke="#1C1C1C" stroke-width="3" stroke-linejoin="bevel"/>
<path d="M12.7101 17.7141L17.7101 12.7141C17.8011 12.619 17.8725 12.5068 17.9201 12.3841C18.0201 12.1406 18.0201 11.8676 17.9201 11.6241C17.8725 11.5013 17.8011 11.3892 17.7101 11.2941L12.7101 6.29409C12.6169 6.20085 12.5062 6.12689 12.3844 6.07643C12.2625 6.02597 12.132 6 12.0001 6C11.7338 6 11.4784 6.10579 11.2901 6.29409C11.1018 6.4824 10.996 6.73779 10.996 7.00409C10.996 7.27039 11.1018 7.52579 11.2901 7.71409L14.5901 11.0041L7.0001 11.0041C6.73489 11.0041 6.48053 11.1094 6.293 11.297C6.10546 11.4845 6.0001 11.7389 6.0001 12.0041C6.0001 12.2693 6.10546 12.5237 6.293 12.7112C6.48053 12.8987 6.73489 13.0041 7.0001 13.0041L14.5901 13.0041L11.2901 16.2941C11.1964 16.3871 11.122 16.4977 11.0712 16.6195C11.0204 16.7414 10.9943 16.8721 10.9943 17.0041C10.9943 17.1361 11.0204 17.2668 11.0712 17.3887C11.122 17.5105 11.1964 17.6211 11.2901 17.7141C11.3831 17.8078 11.4937 17.8822 11.6155 17.933C11.7374 17.9838 11.8681 18.0099 12.0001 18.0099C12.1321 18.0099 12.2628 17.9838 12.3847 17.933C12.5065 17.8822 12.6171 17.8078 12.7101 17.7141Z" fill="#1C1C1C"/>
</svg>
