<svg width="42" height="38" viewBox="0 0 42 38" fill="none" xmlns="http://www.w3.org/2000/svg">
<mask id="mask0_506_5679" style="mask-type:alpha" maskUnits="userSpaceOnUse" x="0" y="0" width="42" height="38">
<rect width="42" height="38" fill="#C4C4C4"/>
</mask>
<g mask="url(#mask0_506_5679)">
<path d="M36.1111 11.4318L24.7778 1.44974C23.7389 0.516139 22.3939 0 21.0001 0C19.6062 0 18.2612 0.516139 17.2223 1.44974L5.88905 11.4318C5.28909 11.9709 4.81032 12.6322 4.48462 13.3717C4.15893 14.1113 3.99378 14.912 4.00018 15.7207V32.3068C4.00018 33.8167 4.5972 35.2648 5.6599 36.3325C6.72259 37.4002 8.16392 38 9.66681 38H32.3333C33.8362 38 35.2775 37.4002 36.3402 36.3325C37.4029 35.2648 37.9999 33.8167 37.9999 32.3068V15.7017C38.0037 14.8962 37.8372 14.0991 37.5116 13.3631C37.186 12.627 36.7086 11.9688 36.1111 11.4318ZM24.7778 34.2045H17.2223V24.7159C17.2223 24.2126 17.4213 23.7299 17.7755 23.374C18.1298 23.0181 18.6102 22.8182 19.1112 22.8182H22.8889C23.3899 22.8182 23.8703 23.0181 24.2246 23.374C24.5788 23.7299 24.7778 24.2126 24.7778 24.7159V34.2045ZM34.2222 32.3068C34.2222 32.8101 34.0232 33.2928 33.6689 33.6487C33.3147 34.0046 32.8343 34.2045 32.3333 34.2045H28.5556V24.7159C28.5556 23.206 27.9585 21.7579 26.8958 20.6902C25.8331 19.6225 24.3918 19.0227 22.8889 19.0227H19.1112C17.6083 19.0227 16.167 19.6225 15.1043 20.6902C14.0416 21.7579 13.4446 23.206 13.4446 24.7159V34.2045H9.66681C9.16584 34.2045 8.6854 34.0046 8.33117 33.6487C7.97694 33.2928 7.77793 32.8101 7.77793 32.3068V15.7017C7.77827 15.4322 7.83572 15.1659 7.94645 14.9205C8.05718 14.6751 8.21866 14.4562 8.42015 14.2784L19.7534 4.31531C20.0981 4.01106 20.5412 3.84328 21.0001 3.84328C21.4589 3.84328 21.902 4.01106 22.2467 4.31531L33.58 14.2784C33.7815 14.4562 33.9429 14.6751 34.0537 14.9205C34.1644 15.1659 34.2218 15.4322 34.2222 15.7017V32.3068Z" fill="#1C1C1C"/>
</g>
</svg>
