<svg width="18" height="23" viewBox="0 0 18 23" fill="none" xmlns="http://www.w3.org/2000/svg">
<path d="M16.875 5.75H13.5V4.6C13.5 3.38 13.0259 2.20998 12.182 1.34731C11.3381 0.484642 10.1935 0 9 0C7.80653 0 6.66193 0.484642 5.81802 1.34731C4.97411 2.20998 4.5 3.38 4.5 4.6V5.75H1.125C0.826631 5.75 0.540484 5.87116 0.329505 6.08683C0.118527 6.30249 0 6.595 0 6.9V19.55C0 20.465 0.355579 21.3425 0.988515 21.9895C1.62145 22.6365 2.47989 23 3.375 23H14.625C15.5201 23 16.3785 22.6365 17.0115 21.9895C17.6444 21.3425 18 20.465 18 19.55V6.9C18 6.595 17.8815 6.30249 17.6705 6.08683C17.4595 5.87116 17.1734 5.75 16.875 5.75ZM6.75 4.6C6.75 3.99 6.98705 3.40499 7.40901 2.97365C7.83097 2.54232 8.40326 2.3 9 2.3C9.59674 2.3 10.169 2.54232 10.591 2.97365C11.0129 3.40499 11.25 3.99 11.25 4.6V5.75H6.75V4.6ZM15.75 19.55C15.75 19.855 15.6315 20.1475 15.4205 20.3632C15.2095 20.5788 14.9234 20.7 14.625 20.7H3.375C3.07663 20.7 2.79048 20.5788 2.5795 20.3632C2.36853 20.1475 2.25 19.855 2.25 19.55V8.05H4.5V9.2C4.5 9.505 4.61853 9.79751 4.8295 10.0132C5.04048 10.2288 5.32663 10.35 5.625 10.35C5.92337 10.35 6.20952 10.2288 6.4205 10.0132C6.63147 9.79751 6.75 9.505 6.75 9.2V8.05H11.25V9.2C11.25 9.505 11.3685 9.79751 11.5795 10.0132C11.7905 10.2288 12.0766 10.35 12.375 10.35C12.6734 10.35 12.9595 10.2288 13.1705 10.0132C13.3815 9.79751 13.5 9.505 13.5 9.2V8.05H15.75V19.55Z" fill="black"/>
</svg>
