<svg width="34" height="32" viewBox="0 0 34 32" fill="none" xmlns="http://www.w3.org/2000/svg">
<g clip-path="url(#clip0_268_5951)">
<path d="M8.09167 19.3378L6.96617 23.4961L2.85249 23.5822C1.62311 21.3255 0.925781 18.7436 0.925781 15.9999C0.925781 13.3467 1.57777 10.8447 2.73345 8.6416H2.73434L6.39666 9.3061L8.00098 12.9089C7.6652 13.8777 7.48219 14.9177 7.48219 15.9999C7.48232 17.1743 7.69729 18.2997 8.09167 19.3378Z" fill="#FBBB00"/>
<path d="M32.9783 13.0107C33.164 13.9786 33.2608 14.9782 33.2608 15.9997C33.2608 17.1452 33.1391 18.2626 32.9073 19.3404C32.1203 23.0081 30.0638 26.2107 27.2151 28.4771L27.2142 28.4762L22.6013 28.2433L21.9484 24.2099C23.8387 23.1127 25.316 21.3958 26.0941 19.3404H17.4492V13.0107H26.2203H32.9783Z" fill="#518EF8"/>
<path d="M27.2141 28.4763L27.215 28.4772C24.4445 30.6811 20.925 31.9998 17.0938 31.9998C10.937 31.9998 5.58416 28.5941 2.85352 23.5823L8.09269 19.3379C9.45798 22.944 12.973 25.5111 17.0938 25.5111C18.865 25.5111 20.5244 25.0372 21.9483 24.21L27.2141 28.4763Z" fill="#28B446"/>
<path d="M27.413 3.6835L22.1756 7.927C20.702 7.01538 18.96 6.48875 17.0937 6.48875C12.8796 6.48875 9.29887 9.17356 8.00197 12.909L2.73526 8.64175H2.73438C5.42504 3.50769 10.8454 0 17.0937 0C21.0164 0 24.6131 1.38287 27.413 3.6835Z" fill="#F14336"/>
</g>
<defs>
<clipPath id="clip0_268_5951">
<rect width="32.334" height="32" fill="white" transform="translate(0.925781)"/>
</clipPath>
</defs>
</svg>
