<svg width="42" height="38" viewBox="0 0 42 38" fill="none" xmlns="http://www.w3.org/2000/svg">
<mask id="mask0_506_5688" style="mask-type:alpha" maskUnits="userSpaceOnUse" x="0" y="0" width="42" height="38">
<rect width="42" height="38" fill="#C4C4C4"/>
</mask>
<g mask="url(#mask0_506_5688)">
<path d="M34.4671 5.61117C34.4532 5.59634 34.449 5.57663 34.4345 5.56214C34.42 5.54764 34.4 5.54324 34.385 5.52922C30.8311 1.98831 26.0179 0 21 0C15.9821 0 11.1689 1.98831 7.615 5.52922C7.60005 5.54324 7.5801 5.54753 7.56549 5.56214C7.55087 5.57674 7.54681 5.59632 7.5329 5.61117C4.88479 8.27082 3.08424 11.655 2.35847 15.3365C1.63271 19.0181 2.01427 22.832 3.455 26.297C4.89573 29.762 7.33105 32.7228 10.4536 34.8056C13.5762 36.8884 17.246 38 21 38C24.754 38 28.4238 36.8884 31.5464 34.8056C34.6689 32.7228 37.1043 29.762 38.545 26.297C39.9857 22.832 40.3673 19.0181 39.6415 15.3365C38.9158 11.655 37.1152 8.27082 34.4671 5.61117ZM20.9999 34.1852C18.7242 34.1844 16.4778 33.6719 14.4272 32.6857C12.3765 31.6994 10.5741 30.2646 9.15341 28.4876H16.7824C17.3108 29.0847 17.96 29.5627 18.6871 29.8901C19.4141 30.2175 20.2025 30.3868 20.9999 30.3868C21.7973 30.3868 22.5857 30.2175 23.3128 29.8901C24.0398 29.5627 24.689 29.0847 25.2174 28.4876H32.8465C31.4258 30.2647 29.6234 31.6994 27.5727 32.6857C25.522 33.672 23.2756 34.1844 20.9999 34.1852ZM19.0999 24.6893C19.0999 24.3137 19.2113 23.9465 19.4201 23.6342C19.6289 23.3218 19.9256 23.0784 20.2728 22.9347C20.62 22.7909 21.002 22.7533 21.3706 22.8266C21.7391 22.8999 22.0777 23.0808 22.3434 23.3464C22.6091 23.612 22.7901 23.9504 22.8634 24.3188C22.9367 24.6872 22.8991 25.069 22.7553 25.4161C22.6115 25.7631 22.3679 26.0597 22.0555 26.2684C21.743 26.4771 21.3757 26.5885 20.9999 26.5885C20.4961 26.588 20.0132 26.3877 19.657 26.0317C19.3007 25.6756 19.1004 25.1928 19.0999 24.6893ZM35.0793 24.6932L35.0597 24.6893H26.6999C26.6963 23.5149 26.3291 22.3703 25.6487 21.4129C24.9683 20.4554 24.0081 19.7319 22.8999 19.3417V13.2942C22.8999 12.7905 22.6997 12.3075 22.3434 11.9513C21.9871 11.5951 21.5038 11.3951 20.9999 11.3951C20.496 11.3951 20.0127 11.5951 19.6564 11.9513C19.3001 12.3075 19.0999 12.7905 19.0999 13.2942V19.3417C17.9917 19.7319 17.0315 20.4554 16.3511 21.4129C15.6707 22.3703 15.3035 23.5149 15.2999 24.6893H6.9401L6.92049 24.6932C6.4263 23.4744 6.09394 22.1961 5.93189 20.8909H7.69991C8.20382 20.8909 8.68709 20.6908 9.04341 20.3347C9.39973 19.9785 9.59991 19.4955 9.59991 18.9918C9.59991 18.4881 9.39973 18.005 9.04341 17.6488C8.68709 17.2927 8.20382 17.0926 7.69991 17.0926H5.93189C6.27139 14.393 7.33426 11.8353 9.00814 9.6898L10.2521 10.9333C10.4285 11.1096 10.638 11.2495 10.8684 11.3449C11.0989 11.4403 11.346 11.4894 11.5955 11.4894C11.845 11.4894 12.092 11.4403 12.3225 11.3449C12.553 11.2495 12.7624 11.1096 12.9388 10.9332C13.1152 10.7569 13.2552 10.5476 13.3506 10.3172C13.4461 10.0868 13.4953 9.83984 13.4953 9.59046C13.4953 9.34108 13.4461 9.09415 13.3506 8.86376C13.2552 8.63336 13.1152 8.42402 12.9388 8.24768L11.695 7.00437C13.8413 5.33177 16.3997 4.26967 19.0999 3.93027V5.69753C19.0999 6.20122 19.3001 6.68428 19.6564 7.04045C20.0127 7.39661 20.496 7.5967 20.9999 7.5967C21.5038 7.5967 21.9871 7.39661 22.3434 7.04045C22.6997 6.68428 22.8999 6.20122 22.8999 5.69753V3.93027C25.6001 4.26967 28.1586 5.33177 30.3048 7.00437L29.061 8.24768C28.7047 8.60381 28.5046 9.08682 28.5045 9.59046C28.5045 10.0941 28.7047 10.5771 29.061 10.9332C29.4173 11.2894 29.9005 11.4894 30.4043 11.4894C30.9082 11.4894 31.3914 11.2894 31.7477 10.9333L32.9917 9.6898C34.6656 11.8353 35.7284 14.393 36.0679 17.0926H34.2999C33.796 17.0926 33.3127 17.2927 32.9564 17.6488C32.6001 18.005 32.3999 18.4881 32.3999 18.9918C32.3999 19.4955 32.6001 19.9785 32.9564 20.3347C33.3127 20.6908 33.796 20.8909 34.2999 20.8909H36.0679C35.9059 22.1961 35.5735 23.4744 35.0793 24.6932Z" fill="#1C1C1C"/>
</g>
</svg>
