<svg width="42" height="38" viewBox="0 0 42 38" fill="none" xmlns="http://www.w3.org/2000/svg">
<mask id="mask0_506_5694" style="mask-type:alpha" maskUnits="userSpaceOnUse" x="0" y="0" width="42" height="38">
<rect width="42" height="38" fill="#C4C4C4"/>
</mask>
<g mask="url(#mask0_506_5694)">
<path d="M36 13.186C35.9805 13.0115 35.9428 12.8395 35.8875 12.673V12.502C35.7973 12.3066 35.6771 12.1271 35.5312 11.97L24.2812 0.57C24.1263 0.422211 23.949 0.300354 23.7563 0.209H23.5688C23.3864 0.110206 23.1905 0.0397518 22.9875 0H11.625C10.1332 0 8.70242 0.600534 7.64752 1.66949C6.59263 2.73845 6 4.18827 6 5.7V32.3C6 33.8117 6.59263 35.2616 7.64752 36.3305C8.70242 37.3995 10.1332 38 11.625 38H30.375C31.8668 38 33.2976 37.3995 34.3525 36.3305C35.4074 35.2616 36 33.8117 36 32.3V13.3C36 13.3 36 13.3 36 13.186ZM24.75 6.479L29.6063 11.4H26.625C26.1277 11.4 25.6508 11.1998 25.2992 10.8435C24.9475 10.4872 24.75 10.0039 24.75 9.5V6.479ZM32.25 32.3C32.25 32.8039 32.0525 33.2872 31.7008 33.6435C31.3492 33.9998 30.8723 34.2 30.375 34.2H11.625C11.1277 34.2 10.6508 33.9998 10.2992 33.6435C9.94754 33.2872 9.75 32.8039 9.75 32.3V5.7C9.75 5.19609 9.94754 4.71282 10.2992 4.3565C10.6508 4.00018 11.1277 3.8 11.625 3.8H21V9.5C21 11.0117 21.5926 12.4616 22.6475 13.5305C23.7024 14.5995 25.1332 15.2 26.625 15.2H32.25V32.3ZM23.4188 23.351L22.875 23.921V19C22.875 18.4961 22.6775 18.0128 22.3258 17.6565C21.9742 17.3002 21.4973 17.1 21 17.1C20.5027 17.1 20.0258 17.3002 19.6742 17.6565C19.3225 18.0128 19.125 18.4961 19.125 19V23.921L18.5813 23.351C18.2282 22.9932 17.7493 22.7922 17.25 22.7922C16.7507 22.7922 16.2718 22.9932 15.9187 23.351C15.5657 23.7088 15.3673 24.194 15.3673 24.7C15.3673 25.206 15.5657 25.6912 15.9187 26.049L19.6687 29.849C19.8471 30.022 20.0573 30.1576 20.2875 30.248C20.5119 30.3485 20.7546 30.4004 21 30.4004C21.2454 30.4004 21.4881 30.3485 21.7125 30.248C21.9427 30.1576 22.1529 30.022 22.3312 29.849L26.0812 26.049C26.4343 25.6912 26.6327 25.206 26.6327 24.7C26.6327 24.194 26.4343 23.7088 26.0812 23.351C25.7282 22.9932 25.2493 22.7922 24.75 22.7922C24.2507 22.7922 23.7718 22.9932 23.4188 23.351Z" fill="#1C1C1C"/>
</g>
</svg>
