<svg width="42" height="38" viewBox="0 0 42 38" fill="none" xmlns="http://www.w3.org/2000/svg">
<mask id="mask0_506_5682" style="mask-type:alpha" maskUnits="userSpaceOnUse" x="0" y="0" width="42" height="38">
<rect width="42" height="38" fill="#C4C4C4"/>
</mask>
<g mask="url(#mask0_506_5682)">
<path d="M21 22.8C20.5027 22.8 20.0258 23.0002 19.6742 23.3565C19.3225 23.7128 19.125 24.1961 19.125 24.7V28.5C19.125 29.0039 19.3225 29.4872 19.6742 29.8435C20.0258 30.1998 20.5027 30.4 21 30.4C21.4973 30.4 21.9742 30.1998 22.3258 29.8435C22.6775 29.4872 22.875 29.0039 22.875 28.5V24.7C22.875 24.1961 22.6775 23.7128 22.3258 23.3565C21.9742 23.0002 21.4973 22.8 21 22.8ZM21.7125 17.252C21.3731 17.0925 20.9943 17.0396 20.625 17.1L20.2875 17.214L19.95 17.385L19.6687 17.613C19.4904 17.795 19.3503 18.0118 19.2569 18.2501C19.1634 18.4885 19.1186 18.7436 19.125 19C19.1236 19.2501 19.1709 19.4979 19.2642 19.7294C19.3575 19.9609 19.495 20.1715 19.6687 20.349C19.8471 20.522 20.0573 20.6576 20.2875 20.748C20.51 20.8544 20.754 20.9064 21 20.9C21.2468 20.9014 21.4914 20.8535 21.7198 20.759C21.9483 20.6644 22.156 20.5251 22.3312 20.349C22.505 20.1715 22.6425 19.9609 22.7358 19.7294C22.8291 19.4979 22.8764 19.2501 22.875 19C22.8764 18.7499 22.8291 18.5021 22.7358 18.2706C22.6425 18.0391 22.505 17.8285 22.3312 17.651C22.149 17.4832 21.9397 17.3482 21.7125 17.252ZM36 13.186C35.9805 13.0115 35.9428 12.8395 35.8875 12.673V12.502C35.7973 12.3066 35.6771 12.1271 35.5312 11.97L24.2812 0.57C24.1263 0.422211 23.949 0.300354 23.7563 0.209H23.5688C23.3864 0.110206 23.1905 0.0397518 22.9875 0H11.625C10.1332 0 8.70242 0.600534 7.64752 1.66949C6.59263 2.73845 6 4.18827 6 5.7V32.3C6 33.8117 6.59263 35.2616 7.64752 36.3305C8.70242 37.3995 10.1332 38 11.625 38H30.375C31.8668 38 33.2976 37.3995 34.3525 36.3305C35.4074 35.2616 36 33.8117 36 32.3V13.3C36 13.3 36 13.3 36 13.186ZM24.75 6.479L29.6063 11.4H26.625C26.1277 11.4 25.6508 11.1998 25.2992 10.8435C24.9475 10.4872 24.75 10.0039 24.75 9.5V6.479ZM32.25 32.3C32.25 32.8039 32.0525 33.2872 31.7008 33.6435C31.3492 33.9998 30.8723 34.2 30.375 34.2H11.625C11.1277 34.2 10.6508 33.9998 10.2992 33.6435C9.94754 33.2872 9.75 32.8039 9.75 32.3V5.7C9.75 5.19609 9.94754 4.71282 10.2992 4.3565C10.6508 4.00018 11.1277 3.8 11.625 3.8H21V9.5C21 11.0117 21.5926 12.4616 22.6475 13.5305C23.7024 14.5995 25.1332 15.2 26.625 15.2H32.25V32.3Z" fill="#1C1C1C"/>
</g>
</svg>
