<svg width="21" height="22" viewBox="0 0 21 22" fill="none" xmlns="http://www.w3.org/2000/svg">
<path d="M12.1576 5.49998H13.2629C13.5559 5.50036 13.8369 5.61637 14.0441 5.82258C14.2513 6.02879 14.3678 6.30835 14.3682 6.59998V7.69997C14.3682 7.99171 14.4847 8.2715 14.6919 8.47779C14.8992 8.68408 15.1804 8.79997 15.4735 8.79997C15.7667 8.79997 16.0478 8.68408 16.2551 8.47779C16.4624 8.2715 16.5788 7.99171 16.5788 7.69997V6.59998C16.5778 5.72506 16.2282 4.88625 15.6065 4.26759C14.9849 3.64893 14.142 3.30094 13.2629 3.29999H12.1576C11.8645 3.29999 11.5833 3.41588 11.3761 3.62217C11.1688 3.82846 11.0523 4.10825 11.0523 4.39998C11.0523 4.69172 11.1688 4.97151 11.3761 5.1778C11.5833 5.38409 11.8645 5.49998 12.1576 5.49998ZM7.73642 15.3999H6.63112C6.3381 15.3996 6.05718 15.2836 5.84998 15.0773C5.64278 14.8711 5.52621 14.5916 5.52583 14.3V13.2C5.52583 12.9082 5.40938 12.6284 5.20209 12.4221C4.99481 12.2158 4.71367 12.1 4.42053 12.1C4.12738 12.1 3.84625 12.2158 3.63896 12.4221C3.43168 12.6284 3.31523 12.9082 3.31523 13.2V14.3C3.31619 15.1749 3.66585 16.0137 4.28749 16.6323C4.90914 17.251 5.75199 17.599 6.63112 17.5999H7.73642C8.02957 17.5999 8.3107 17.484 8.51799 17.2778C8.72527 17.0715 8.84172 16.7917 8.84172 16.4999C8.84172 16.2082 8.72527 15.9284 8.51799 15.7221C8.3107 15.5158 8.02957 15.3999 7.73642 15.3999ZM19.8947 14.3C20.1878 14.3 20.469 14.1841 20.6763 13.9778C20.8835 13.7715 21 13.4917 21 13.2C21 12.9082 20.8835 12.6284 20.6763 12.4221C20.469 12.2158 20.1878 12.1 19.8947 12.1H16.5788V11.55C16.5788 11.2582 16.4624 10.9784 16.2551 10.7721C16.0478 10.5659 15.7667 10.45 15.4735 10.45C15.1804 10.45 14.8992 10.5659 14.6919 10.7721C14.4847 10.9784 14.3682 11.2582 14.3682 11.55V12.1H11.0523C10.7592 12.1 10.478 12.2158 10.2708 12.4221C10.0635 12.6284 9.94702 12.9082 9.94702 13.2C9.94702 13.4917 10.0635 13.7715 10.2708 13.9778C10.478 14.1841 10.7592 14.3 11.0523 14.3H16.7825C16.5324 15.3109 16.0709 16.258 15.4279 17.0793C15.1648 16.7399 14.9321 16.3781 14.7325 15.9983C14.6663 15.8698 14.5753 15.7555 14.4648 15.662C14.3542 15.5685 14.2262 15.4975 14.0881 15.4532C13.9499 15.409 13.8044 15.3922 13.6598 15.4039C13.5152 15.4155 13.3742 15.4555 13.2451 15.5213C13.116 15.5872 13.0012 15.6778 12.9072 15.7878C12.8132 15.8978 12.7419 16.0252 12.6974 16.1627C12.6076 16.4403 12.6322 16.7421 12.7659 17.0016C13.0635 17.5741 13.4187 18.1151 13.826 18.6164C13.024 19.1959 12.1121 19.6071 11.1457 19.8252C10.8598 19.888 10.6106 20.0611 10.4527 20.3065C10.2949 20.5519 10.2414 20.8496 10.3038 21.1342C10.3663 21.4189 10.5397 21.6672 10.7859 21.8248C11.0322 21.9824 11.3312 22.0363 11.6173 21.9747C13.0042 21.6695 14.305 21.0601 15.4251 20.1909C16.5546 21.0606 17.864 21.6696 19.2589 21.9742C19.4006 22.0053 19.5472 22.0083 19.6901 21.9831C19.833 21.9578 19.9695 21.9048 20.0919 21.8271C20.2142 21.7493 20.3199 21.6483 20.4031 21.5299C20.4862 21.4115 20.545 21.2779 20.5763 21.1368C20.6075 20.9958 20.6106 20.85 20.5852 20.7077C20.5598 20.5655 20.5066 20.4296 20.4284 20.3079C20.3503 20.1861 20.2489 20.0809 20.1299 19.9982C20.0109 19.9155 19.8767 19.8569 19.7349 19.8258C18.762 19.6105 17.8426 19.2027 17.0312 18.6267C18.0533 17.3746 18.7422 15.8867 19.0345 14.3H19.8947ZM6.66402 10.1669C6.73588 10.4492 6.91726 10.6916 7.16841 10.841C7.41955 10.9904 7.71997 11.0346 8.00381 10.964C8.28766 10.8933 8.53178 10.7135 8.68267 10.464C8.83356 10.2146 8.87891 9.91572 8.80877 9.63302L6.8664 1.90029C6.72997 1.35748 6.41515 0.875637 5.97198 0.531327C5.52881 0.187017 4.98272 0 4.42049 0C3.85827 0 3.31218 0.187017 2.86901 0.531327C2.42584 0.875637 2.11102 1.35748 1.97459 1.90029L0.032229 9.63302C-0.0379046 9.91572 0.00744247 10.2146 0.158331 10.464C0.30922 10.7135 0.553341 10.8933 0.837188 10.964C1.12104 11.0346 1.42145 10.9904 1.6726 10.841C1.92374 10.6916 2.10512 10.4492 2.17698 10.1669L2.79662 7.69997H6.04438L6.66402 10.1669ZM3.34927 5.49998L4.11935 2.43417C4.14248 2.37331 4.18368 2.32089 4.23748 2.28391C4.29127 2.24692 4.35511 2.2271 4.42049 2.2271C4.48588 2.2271 4.54972 2.24692 4.60351 2.28391C4.65731 2.32089 4.69851 2.37331 4.72164 2.43417L5.49173 5.49998H3.34927Z" fill="black"/>
</svg>
