<svg width="24" height="21" viewBox="0 0 24 21" fill="none" xmlns="http://www.w3.org/2000/svg">
<path d="M21.7956 2.10294C20.5222 0.89514 18.834 0.160811 17.0379 0.0334965C15.2417 -0.0938181 13.4571 0.394338 12.0085 1.40919C10.4824 0.332896 8.58295 -0.155146 6.69259 0.0433412C4.80224 0.241829 3.06141 1.1121 1.82066 2.47891C0.579915 3.84572 -0.0685862 5.60754 0.00575165 7.40957C0.0800895 9.21161 0.871744 10.92 2.2213 12.1907L11.1569 20.6636C11.2684 20.7702 11.401 20.8548 11.5472 20.9125C11.6934 20.9703 11.8501 21 12.0085 21C12.1668 21 12.3236 20.9703 12.4697 20.9125C12.6159 20.8548 12.7485 20.7702 12.86 20.6636L21.7956 12.1907C22.4945 11.5285 23.0488 10.7422 23.4271 9.87677C23.8053 9.01131 24 8.08367 24 7.14684C24 6.21002 23.8053 5.28237 23.4271 4.41692C23.0488 3.55146 22.4945 2.76516 21.7956 2.10294ZM20.1045 10.5872L12.0085 18.2525L3.91246 10.5872C3.19902 9.90785 2.71302 9.0439 2.51543 8.10369C2.31783 7.16348 2.41744 6.18888 2.80175 5.30214C3.18607 4.41541 3.83798 3.65602 4.6757 3.11925C5.51342 2.58248 6.49966 2.29223 7.51068 2.28491C8.86135 2.28804 10.1555 2.79935 11.1089 3.70653C11.2204 3.81312 11.3531 3.89773 11.4992 3.95547C11.6454 4.01321 11.8022 4.04294 11.9605 4.04294C12.1188 4.04294 12.2756 4.01321 12.4218 3.95547C12.5679 3.89773 12.7006 3.81312 12.8121 3.70653C13.7936 2.90005 15.0615 2.47727 16.3594 2.52377C17.6572 2.57026 18.8879 3.08255 19.8024 3.95694C20.717 4.83134 21.247 6.00254 21.2853 7.23349C21.3235 8.46445 20.8672 9.66321 20.0085 10.5872H20.1045Z" fill="black"/>
</svg>
