<svg width="42" height="38" viewBox="0 0 42 38" fill="none" xmlns="http://www.w3.org/2000/svg">
<mask id="mask0_506_5685" style="mask-type:alpha" maskUnits="userSpaceOnUse" x="0" y="0" width="42" height="38">
<rect width="42" height="38" fill="#C4C4C4"/>
</mask>
<g mask="url(#mask0_506_5685)">
<path d="M5 19C5 19.5039 5.21071 19.9872 5.58579 20.3435C5.96086 20.6998 6.46957 20.9 7 20.9H22.18L17.58 25.251C17.3925 25.4276 17.2438 25.6378 17.1422 25.8693C17.0407 26.1008 16.9884 26.3492 16.9884 26.6C16.9884 26.8508 17.0407 27.0992 17.1422 27.3307C17.2438 27.5622 17.3925 27.7724 17.58 27.949C17.7659 28.1271 17.9871 28.2684 18.2308 28.3649C18.4746 28.4614 18.736 28.511 19 28.511C19.264 28.511 19.5254 28.4614 19.7692 28.3649C20.0129 28.2684 20.2341 28.1271 20.42 27.949L28.42 20.349C28.6021 20.1683 28.7448 19.9552 28.84 19.722C29.04 19.2594 29.04 18.7406 28.84 18.278C28.7448 18.0448 28.6021 17.8317 28.42 17.651L20.42 10.051C20.2335 9.87385 20.0121 9.73332 19.7685 9.63745C19.5249 9.54157 19.2637 9.49223 19 9.49223C18.7363 9.49223 18.4751 9.54157 18.2315 9.63745C17.9879 9.73332 17.7665 9.87385 17.58 10.051C17.3935 10.2282 17.2456 10.4385 17.1447 10.6699C17.0438 10.9014 16.9918 11.1495 16.9918 11.4C16.9918 11.6505 17.0438 11.8986 17.1447 12.1301C17.2456 12.3615 17.3935 12.5718 17.58 12.749L22.18 17.1H7C6.46957 17.1 5.96086 17.3002 5.58579 17.6565C5.21071 18.0128 5 18.4961 5 19ZM31 0H11C9.4087 0 7.88258 0.600534 6.75736 1.66949C5.63214 2.73845 5 4.18827 5 5.7V11.4C5 11.9039 5.21071 12.3872 5.58579 12.7435C5.96086 13.0998 6.46957 13.3 7 13.3C7.53043 13.3 8.03914 13.0998 8.41421 12.7435C8.78929 12.3872 9 11.9039 9 11.4V5.7C9 5.19609 9.21071 4.71282 9.58579 4.3565C9.96086 4.00018 10.4696 3.8 11 3.8H31C31.5304 3.8 32.0391 4.00018 32.4142 4.3565C32.7893 4.71282 33 5.19609 33 5.7V32.3C33 32.8039 32.7893 33.2872 32.4142 33.6435C32.0391 33.9998 31.5304 34.2 31 34.2H11C10.4696 34.2 9.96086 33.9998 9.58579 33.6435C9.21071 33.2872 9 32.8039 9 32.3V26.6C9 26.0961 8.78929 25.6128 8.41421 25.2565C8.03914 24.9002 7.53043 24.7 7 24.7C6.46957 24.7 5.96086 24.9002 5.58579 25.2565C5.21071 25.6128 5 26.0961 5 26.6V32.3C5 33.8117 5.63214 35.2616 6.75736 36.3305C7.88258 37.3995 9.4087 38 11 38H31C32.5913 38 34.1174 37.3995 35.2426 36.3305C36.3679 35.2616 37 33.8117 37 32.3V5.7C37 4.18827 36.3679 2.73845 35.2426 1.66949C34.1174 0.600534 32.5913 0 31 0Z" fill="#1C1C1C"/>
</g>
</svg>
