<svg width="42" height="38" viewBox="0 0 42 38" fill="none" xmlns="http://www.w3.org/2000/svg">
<mask id="mask0_506_5691" style="mask-type:alpha" maskUnits="userSpaceOnUse" x="0" y="0" width="42" height="38">
<rect width="42" height="38" fill="#C4C4C4"/>
</mask>
<g mask="url(#mask0_506_5691)">
<path d="M11.5 22.8H15.3C15.8039 22.8 16.2872 22.5998 16.6435 22.2435C16.9998 21.8872 17.2 21.4039 17.2 20.9C17.2 20.3961 16.9998 19.9128 16.6435 19.5565C16.2872 19.2002 15.8039 19 15.3 19H11.5C10.9961 19 10.5128 19.2002 10.1565 19.5565C9.80018 19.9128 9.6 20.3961 9.6 20.9C9.6 21.4039 9.80018 21.8872 10.1565 22.2435C10.5128 22.5998 10.9961 22.8 11.5 22.8ZM22.9 26.6H11.5C10.9961 26.6 10.5128 26.8002 10.1565 27.1565C9.80018 27.5128 9.6 27.9961 9.6 28.5C9.6 29.0039 9.80018 29.4872 10.1565 29.8435C10.5128 30.1998 10.9961 30.4 11.5 30.4H22.9C23.4039 30.4 23.8872 30.1998 24.2435 29.8435C24.5998 29.4872 24.8 29.0039 24.8 28.5C24.8 27.9961 24.5998 27.5128 24.2435 27.1565C23.8872 26.8002 23.4039 26.6 22.9 26.6ZM34.3 0H7.7C6.18827 0 4.73845 0.600534 3.66949 1.66949C2.60053 2.73845 2 4.18827 2 5.7V32.3C2 33.8117 2.60053 35.2616 3.66949 36.3305C4.73845 37.3995 6.18827 38 7.7 38H34.3C35.8117 38 37.2616 37.3995 38.3305 36.3305C39.3995 35.2616 40 33.8117 40 32.3V5.7C40 4.18827 39.3995 2.73845 38.3305 1.66949C37.2616 0.600534 35.8117 0 34.3 0ZM24.8 3.8V10.051L21.931 8.455C21.6422 8.28824 21.3145 8.20045 20.981 8.20045C20.6475 8.20045 20.3198 8.28824 20.031 8.455L17.2 10.051V3.8H24.8ZM36.2 32.3C36.2 32.8039 35.9998 33.2872 35.6435 33.6435C35.2872 33.9998 34.8039 34.2 34.3 34.2H7.7C7.19609 34.2 6.71282 33.9998 6.3565 33.6435C6.00018 33.2872 5.8 32.8039 5.8 32.3V5.7C5.8 5.19609 6.00018 4.71282 6.3565 4.3565C6.71282 4.00018 7.19609 3.8 7.7 3.8H13.4V13.3C13.402 13.6316 13.4907 13.9569 13.6574 14.2435C13.8241 14.5302 14.0628 14.7682 14.35 14.934C14.6388 15.1008 14.9665 15.1886 15.3 15.1886C15.6335 15.1886 15.9612 15.1008 16.25 14.934L21 12.293L25.769 14.953C26.053 15.1139 26.3736 15.199 26.7 15.2C27.2039 15.2 27.6872 14.9998 28.0435 14.6435C28.3998 14.2872 28.6 13.8039 28.6 13.3V3.8H34.3C34.8039 3.8 35.2872 4.00018 35.6435 4.3565C35.9998 4.71282 36.2 5.19609 36.2 5.7V32.3Z" fill="#1C1C1C"/>
</g>
</svg>
